<svg width="100" height="100" viewBox="0 0 100 100" fill="none" xmlns="http://www.w3.org/2000/svg">
<circle cx="50" cy="50" r="50" fill="#95A9C6"/>
<rect x="24" y="24" width="52" height="52" rx="26" fill="white"/>
<path d="M53.0333 61.7433H47.595C44.0417 61.7433 41.16 58.7533 41.16 55.07C41.16 54.1817 41.8967 53.445 42.785 53.445C43.6733 53.445 44.41 54.1817 44.41 55.07C44.41 56.955 45.84 58.4933 47.595 58.4933H53.0333C54.4417 58.4933 55.6117 57.2367 55.6117 55.72C55.6117 53.835 54.94 53.4667 53.835 53.0767L45.1033 50C43.4133 49.415 41.1383 48.1583 41.1383 44.28C41.1383 40.9433 43.76 38.2567 46.9667 38.2567H52.405C55.9583 38.2567 58.84 41.2467 58.84 44.93C58.84 45.8183 58.1033 46.555 57.215 46.555C56.3267 46.555 55.59 45.8183 55.59 44.93C55.59 43.045 54.16 41.5067 52.405 41.5067H46.9667C45.5583 41.5067 44.3883 42.7633 44.3883 44.28C44.3883 46.165 45.06 46.5333 46.165 46.9233L54.8967 50C56.5867 50.585 58.8617 51.8417 58.8617 55.72C58.84 59.035 56.24 61.7433 53.0333 61.7433Z" fill="#95A9C6"/>
<path d="M50 64.625C49.1117 64.625 48.375 63.8883 48.375 63V37C48.375 36.1117 49.1117 35.375 50 35.375C50.8883 35.375 51.625 36.1117 51.625 37V63C51.625 63.8883 50.8883 64.625 50 64.625Z" fill="#95A9C6"/>
<path d="M50 73.2916C37.1517 73.2916 26.7083 62.8483 26.7083 50C26.7083 37.1516 37.1517 26.7083 50 26.7083C62.8483 26.7083 73.2917 37.1516 73.2917 50C73.2917 62.8483 62.8483 73.2916 50 73.2916ZM50 29.9583C38.95 29.9583 29.9583 38.95 29.9583 50C29.9583 61.05 38.95 70.0416 50 70.0416C61.05 70.0416 70.0417 61.05 70.0417 50C70.0417 38.95 61.05 29.9583 50 29.9583Z" fill="white"/>
</svg>
